<mxfile host="app.diagrams.net" modified="2024-05-26T08:44:13.724Z" agent="Mozilla/5.0 (Windows NT 10.0; Win64; x64) AppleWebKit/537.36 (KHTML, like Gecko) Chrome/124.0.0.0 Safari/537.36" etag="ijSX0CXC4SYBPfArEDVs" version="24.4.8" type="device">
  <diagram name="第 1 页" id="q487_C9pKOcz1au2XYbu">
    <mxGraphModel dx="1647" dy="848" grid="1" gridSize="10" guides="1" tooltips="1" connect="1" arrows="1" fold="1" page="1" pageScale="1" pageWidth="827" pageHeight="1169" math="0" shadow="0">
      <root>
        <mxCell id="0" />
        <mxCell id="1" parent="0" />
        <mxCell id="L-yIoZgWH15QMsHMWlx4-1" value="&lt;font style=&quot;font-size: 16px;&quot;&gt;Users&lt;/font&gt;" style="rounded=0;whiteSpace=wrap;html=1;" vertex="1" parent="1">
          <mxGeometry x="354" y="410" width="120" height="60" as="geometry" />
        </mxCell>
        <mxCell id="L-yIoZgWH15QMsHMWlx4-2" value="&lt;font style=&quot;font-size: 16px;&quot;&gt;User Auth Result&lt;/font&gt;" style="rounded=0;whiteSpace=wrap;html=1;" vertex="1" parent="1">
          <mxGeometry x="550" y="755" width="120" height="60" as="geometry" />
        </mxCell>
        <mxCell id="L-yIoZgWH15QMsHMWlx4-3" value="&lt;font style=&quot;font-size: 16px;&quot;&gt;Login Form&lt;/font&gt;" style="rounded=0;whiteSpace=wrap;html=1;" vertex="1" parent="1">
          <mxGeometry x="354" y="525" width="120" height="60" as="geometry" />
        </mxCell>
        <mxCell id="L-yIoZgWH15QMsHMWlx4-4" value="&lt;font style=&quot;font-size: 16px;&quot;&gt;ATM Manager Validate User&lt;/font&gt;" style="rounded=0;whiteSpace=wrap;html=1;" vertex="1" parent="1">
          <mxGeometry x="354" y="640" width="120" height="60" as="geometry" />
        </mxCell>
        <mxCell id="L-yIoZgWH15QMsHMWlx4-5" value="&lt;font style=&quot;font-size: 16px;&quot;&gt;Customer Data&lt;/font&gt;" style="rounded=0;whiteSpace=wrap;html=1;" vertex="1" parent="1">
          <mxGeometry x="354" y="755" width="120" height="60" as="geometry" />
        </mxCell>
        <mxCell id="L-yIoZgWH15QMsHMWlx4-6" value="&lt;font style=&quot;font-size: 16px;&quot;&gt;Display Message (Success / Fail)&lt;/font&gt;" style="rounded=0;whiteSpace=wrap;html=1;" vertex="1" parent="1">
          <mxGeometry x="354" y="870" width="120" height="60" as="geometry" />
        </mxCell>
        <mxCell id="L-yIoZgWH15QMsHMWlx4-7" value="" style="endArrow=classic;startArrow=classic;html=1;rounded=0;exitX=1;exitY=0.5;exitDx=0;exitDy=0;entryX=0;entryY=0.5;entryDx=0;entryDy=0;" edge="1" parent="1" source="L-yIoZgWH15QMsHMWlx4-5" target="L-yIoZgWH15QMsHMWlx4-2">
          <mxGeometry width="50" height="50" relative="1" as="geometry">
            <mxPoint x="390" y="680" as="sourcePoint" />
            <mxPoint x="440" y="630" as="targetPoint" />
          </mxGeometry>
        </mxCell>
        <mxCell id="L-yIoZgWH15QMsHMWlx4-8" value="" style="endArrow=classic;html=1;rounded=0;exitX=0.5;exitY=1;exitDx=0;exitDy=0;entryX=0.5;entryY=0;entryDx=0;entryDy=0;" edge="1" parent="1" source="L-yIoZgWH15QMsHMWlx4-1" target="L-yIoZgWH15QMsHMWlx4-3">
          <mxGeometry width="50" height="50" relative="1" as="geometry">
            <mxPoint x="390" y="680" as="sourcePoint" />
            <mxPoint x="440" y="630" as="targetPoint" />
          </mxGeometry>
        </mxCell>
        <mxCell id="L-yIoZgWH15QMsHMWlx4-9" value="" style="endArrow=classic;html=1;rounded=0;exitX=0.5;exitY=1;exitDx=0;exitDy=0;entryX=0.5;entryY=0;entryDx=0;entryDy=0;" edge="1" parent="1">
          <mxGeometry width="50" height="50" relative="1" as="geometry">
            <mxPoint x="414" y="585" as="sourcePoint" />
            <mxPoint x="414" y="640" as="targetPoint" />
          </mxGeometry>
        </mxCell>
        <mxCell id="L-yIoZgWH15QMsHMWlx4-10" value="" style="endArrow=classic;html=1;rounded=0;exitX=0.5;exitY=1;exitDx=0;exitDy=0;entryX=0.5;entryY=0;entryDx=0;entryDy=0;" edge="1" parent="1">
          <mxGeometry width="50" height="50" relative="1" as="geometry">
            <mxPoint x="414" y="700" as="sourcePoint" />
            <mxPoint x="414" y="755" as="targetPoint" />
          </mxGeometry>
        </mxCell>
        <mxCell id="L-yIoZgWH15QMsHMWlx4-12" value="" style="endArrow=classic;html=1;rounded=0;exitX=0.5;exitY=1;exitDx=0;exitDy=0;entryX=0.5;entryY=0;entryDx=0;entryDy=0;" edge="1" parent="1">
          <mxGeometry width="50" height="50" relative="1" as="geometry">
            <mxPoint x="414" y="815" as="sourcePoint" />
            <mxPoint x="414" y="870" as="targetPoint" />
          </mxGeometry>
        </mxCell>
        <mxCell id="L-yIoZgWH15QMsHMWlx4-13" value="" style="endArrow=classic;html=1;rounded=0;exitX=0.5;exitY=1;exitDx=0;exitDy=0;entryX=1;entryY=0.5;entryDx=0;entryDy=0;" edge="1" parent="1" target="L-yIoZgWH15QMsHMWlx4-6">
          <mxGeometry width="50" height="50" relative="1" as="geometry">
            <mxPoint x="609.5" y="815" as="sourcePoint" />
            <mxPoint x="609.5" y="870" as="targetPoint" />
            <Array as="points">
              <mxPoint x="610" y="900" />
            </Array>
          </mxGeometry>
        </mxCell>
        <mxCell id="L-yIoZgWH15QMsHMWlx4-14" value="&lt;font style=&quot;font-size: 16px;&quot;&gt;Users&lt;/font&gt;" style="rounded=0;whiteSpace=wrap;html=1;" vertex="1" parent="1">
          <mxGeometry x="354" y="1030" width="120" height="60" as="geometry" />
        </mxCell>
        <mxCell id="L-yIoZgWH15QMsHMWlx4-15" value="&lt;font style=&quot;font-size: 16px;&quot;&gt;Account Data&lt;/font&gt;" style="rounded=0;whiteSpace=wrap;html=1;" vertex="1" parent="1">
          <mxGeometry x="550" y="1375" width="120" height="60" as="geometry" />
        </mxCell>
        <mxCell id="L-yIoZgWH15QMsHMWlx4-16" value="&lt;font style=&quot;font-size: 16px;&quot;&gt;Main Form&lt;/font&gt;" style="rounded=0;whiteSpace=wrap;html=1;" vertex="1" parent="1">
          <mxGeometry x="354" y="1145" width="120" height="60" as="geometry" />
        </mxCell>
        <mxCell id="L-yIoZgWH15QMsHMWlx4-17" value="&lt;font style=&quot;font-size: 16px;&quot;&gt;ATM Manager Transaction&lt;/font&gt;" style="rounded=0;whiteSpace=wrap;html=1;" vertex="1" parent="1">
          <mxGeometry x="354" y="1260" width="120" height="60" as="geometry" />
        </mxCell>
        <mxCell id="L-yIoZgWH15QMsHMWlx4-18" value="&lt;span style=&quot;font-size: 16px;&quot;&gt;Select Account and Operation&lt;/span&gt;" style="rounded=0;whiteSpace=wrap;html=1;" vertex="1" parent="1">
          <mxGeometry x="354" y="1375" width="120" height="60" as="geometry" />
        </mxCell>
        <mxCell id="L-yIoZgWH15QMsHMWlx4-19" value="&lt;font style=&quot;font-size: 16px;&quot;&gt;Update NewBalance&lt;/font&gt;" style="rounded=0;whiteSpace=wrap;html=1;" vertex="1" parent="1">
          <mxGeometry x="354" y="1490" width="120" height="60" as="geometry" />
        </mxCell>
        <mxCell id="L-yIoZgWH15QMsHMWlx4-20" value="" style="endArrow=classic;startArrow=classic;html=1;rounded=0;exitX=1;exitY=0.5;exitDx=0;exitDy=0;entryX=0;entryY=0.5;entryDx=0;entryDy=0;" edge="1" parent="1" source="L-yIoZgWH15QMsHMWlx4-18" target="L-yIoZgWH15QMsHMWlx4-15">
          <mxGeometry width="50" height="50" relative="1" as="geometry">
            <mxPoint x="390" y="1300" as="sourcePoint" />
            <mxPoint x="440" y="1250" as="targetPoint" />
          </mxGeometry>
        </mxCell>
        <mxCell id="L-yIoZgWH15QMsHMWlx4-21" value="" style="endArrow=classic;html=1;rounded=0;exitX=0.5;exitY=1;exitDx=0;exitDy=0;entryX=0.5;entryY=0;entryDx=0;entryDy=0;" edge="1" parent="1" source="L-yIoZgWH15QMsHMWlx4-14" target="L-yIoZgWH15QMsHMWlx4-16">
          <mxGeometry width="50" height="50" relative="1" as="geometry">
            <mxPoint x="390" y="1300" as="sourcePoint" />
            <mxPoint x="440" y="1250" as="targetPoint" />
          </mxGeometry>
        </mxCell>
        <mxCell id="L-yIoZgWH15QMsHMWlx4-22" value="" style="endArrow=classic;html=1;rounded=0;exitX=0.5;exitY=1;exitDx=0;exitDy=0;entryX=0.5;entryY=0;entryDx=0;entryDy=0;" edge="1" parent="1">
          <mxGeometry width="50" height="50" relative="1" as="geometry">
            <mxPoint x="414" y="1205" as="sourcePoint" />
            <mxPoint x="414" y="1260" as="targetPoint" />
          </mxGeometry>
        </mxCell>
        <mxCell id="L-yIoZgWH15QMsHMWlx4-23" value="" style="endArrow=classic;html=1;rounded=0;exitX=0.5;exitY=1;exitDx=0;exitDy=0;entryX=0.5;entryY=0;entryDx=0;entryDy=0;" edge="1" parent="1">
          <mxGeometry width="50" height="50" relative="1" as="geometry">
            <mxPoint x="414" y="1320" as="sourcePoint" />
            <mxPoint x="414" y="1375" as="targetPoint" />
          </mxGeometry>
        </mxCell>
        <mxCell id="L-yIoZgWH15QMsHMWlx4-24" value="" style="endArrow=classic;html=1;rounded=0;exitX=0.5;exitY=1;exitDx=0;exitDy=0;entryX=0.5;entryY=0;entryDx=0;entryDy=0;" edge="1" parent="1">
          <mxGeometry width="50" height="50" relative="1" as="geometry">
            <mxPoint x="414" y="1435" as="sourcePoint" />
            <mxPoint x="414" y="1490" as="targetPoint" />
          </mxGeometry>
        </mxCell>
        <mxCell id="L-yIoZgWH15QMsHMWlx4-27" value="&lt;font style=&quot;font-size: 16px;&quot;&gt;Display Message&lt;/font&gt;&lt;div&gt;&lt;font style=&quot;font-size: 16px;&quot;&gt;(Success / Fail)&lt;/font&gt;&lt;/div&gt;" style="rounded=0;whiteSpace=wrap;html=1;" vertex="1" parent="1">
          <mxGeometry x="354" y="1605" width="120" height="60" as="geometry" />
        </mxCell>
        <mxCell id="L-yIoZgWH15QMsHMWlx4-28" value="" style="endArrow=classic;html=1;rounded=0;exitX=0.5;exitY=1;exitDx=0;exitDy=0;entryX=0.5;entryY=0;entryDx=0;entryDy=0;" edge="1" parent="1">
          <mxGeometry width="50" height="50" relative="1" as="geometry">
            <mxPoint x="414" y="1550" as="sourcePoint" />
            <mxPoint x="414" y="1605" as="targetPoint" />
          </mxGeometry>
        </mxCell>
      </root>
    </mxGraphModel>
  </diagram>
</mxfile>
